<mxfile host="app.diagrams.net" agent="Mozilla/5.0 (Windows NT 10.0; Win64; x64) AppleWebKit/537.36 (KHTML, like Gecko) Chrome/134.0.0.0 Safari/537.36" version="26.1.1">
  <diagram name="PÃ¡gina-1" id="dgzRSHPbwoZ3zf9FKIFu">
    <mxGraphModel dx="1050" dy="557" grid="0" gridSize="10" guides="1" tooltips="1" connect="1" arrows="1" fold="1" page="1" pageScale="1" pageWidth="827" pageHeight="1169" math="0" shadow="0">
      <root>
        <mxCell id="0" />
        <mxCell id="1" parent="0" />
        <mxCell id="iAj_ErwM6QHPiEVYFfLW-1" value="" style="pointerEvents=1;verticalLabelPosition=bottom;shadow=0;dashed=0;align=center;html=1;verticalAlign=top;shape=mxgraph.electrical.resistors.resistor_1;" parent="1" vertex="1">
          <mxGeometry x="110" y="270" width="100" height="20" as="geometry" />
        </mxCell>
        <mxCell id="iAj_ErwM6QHPiEVYFfLW-2" value="" style="endArrow=classic;html=1;rounded=0;" parent="1" edge="1">
          <mxGeometry width="50" height="50" relative="1" as="geometry">
            <mxPoint x="112" y="360" as="sourcePoint" />
            <mxPoint x="112" y="290" as="targetPoint" />
            <Array as="points">
              <mxPoint x="112" y="340" />
              <mxPoint x="112" y="320" />
            </Array>
          </mxGeometry>
        </mxCell>
        <mxCell id="iAj_ErwM6QHPiEVYFfLW-12" style="edgeStyle=orthogonalEdgeStyle;rounded=0;orthogonalLoop=1;jettySize=auto;html=1;exitX=1;exitY=0.5;exitDx=0;exitDy=0;exitPerimeter=0;endArrow=none;startFill=0;" parent="1" source="iAj_ErwM6QHPiEVYFfLW-6" edge="1">
          <mxGeometry relative="1" as="geometry">
            <mxPoint x="420" y="300" as="targetPoint" />
          </mxGeometry>
        </mxCell>
        <mxCell id="iAj_ErwM6QHPiEVYFfLW-6" value="" style="verticalLabelPosition=bottom;shadow=0;dashed=0;align=center;html=1;verticalAlign=top;shape=mxgraph.electrical.abstract.amplifier;" parent="1" vertex="1">
          <mxGeometry x="270" y="250" width="90" height="100" as="geometry" />
        </mxCell>
        <mxCell id="iAj_ErwM6QHPiEVYFfLW-7" style="edgeStyle=orthogonalEdgeStyle;rounded=0;orthogonalLoop=1;jettySize=auto;html=1;entryX=0.013;entryY=0.302;entryDx=0;entryDy=0;entryPerimeter=0;endArrow=none;startFill=0;" parent="1" source="iAj_ErwM6QHPiEVYFfLW-1" target="iAj_ErwM6QHPiEVYFfLW-6" edge="1">
          <mxGeometry relative="1" as="geometry" />
        </mxCell>
        <mxCell id="iAj_ErwM6QHPiEVYFfLW-9" value="" style="pointerEvents=1;verticalLabelPosition=bottom;shadow=0;dashed=0;align=center;html=1;verticalAlign=top;shape=mxgraph.electrical.signal_sources.protective_earth;" parent="1" vertex="1">
          <mxGeometry x="100" y="370" width="25" height="20" as="geometry" />
        </mxCell>
        <mxCell id="iAj_ErwM6QHPiEVYFfLW-10" value="" style="pointerEvents=1;verticalLabelPosition=bottom;shadow=0;dashed=0;align=center;html=1;verticalAlign=top;shape=mxgraph.electrical.signal_sources.protective_earth;" parent="1" vertex="1">
          <mxGeometry x="185" y="370" width="25" height="20" as="geometry" />
        </mxCell>
        <mxCell id="iAj_ErwM6QHPiEVYFfLW-16" style="edgeStyle=orthogonalEdgeStyle;rounded=0;orthogonalLoop=1;jettySize=auto;html=1;endArrow=none;startFill=0;" parent="1" source="iAj_ErwM6QHPiEVYFfLW-15" edge="1">
          <mxGeometry relative="1" as="geometry">
            <mxPoint x="220" y="280" as="targetPoint" />
          </mxGeometry>
        </mxCell>
        <mxCell id="iAj_ErwM6QHPiEVYFfLW-17" style="edgeStyle=orthogonalEdgeStyle;rounded=0;orthogonalLoop=1;jettySize=auto;html=1;exitX=1;exitY=0.5;exitDx=0;exitDy=0;exitPerimeter=0;endArrow=none;startFill=0;" parent="1" source="iAj_ErwM6QHPiEVYFfLW-15" edge="1">
          <mxGeometry relative="1" as="geometry">
            <mxPoint x="400" y="300" as="targetPoint" />
          </mxGeometry>
        </mxCell>
        <mxCell id="iAj_ErwM6QHPiEVYFfLW-15" value="" style="pointerEvents=1;verticalLabelPosition=bottom;shadow=0;dashed=0;align=center;html=1;verticalAlign=top;shape=mxgraph.electrical.capacitors.capacitor_1;" parent="1" vertex="1">
          <mxGeometry x="250" y="150" width="100" height="60" as="geometry" />
        </mxCell>
        <mxCell id="iAj_ErwM6QHPiEVYFfLW-18" value="" style="endArrow=classic;html=1;rounded=0;" parent="1" edge="1">
          <mxGeometry width="50" height="50" relative="1" as="geometry">
            <mxPoint x="422" y="360" as="sourcePoint" />
            <mxPoint x="422" y="310" as="targetPoint" />
          </mxGeometry>
        </mxCell>
        <mxCell id="iAj_ErwM6QHPiEVYFfLW-19" value="" style="pointerEvents=1;verticalLabelPosition=bottom;shadow=0;dashed=0;align=center;html=1;verticalAlign=top;shape=mxgraph.electrical.signal_sources.protective_earth;" parent="1" vertex="1">
          <mxGeometry x="410" y="370" width="25" height="20" as="geometry" />
        </mxCell>
        <mxCell id="iAj_ErwM6QHPiEVYFfLW-20" value="" style="endArrow=classic;html=1;rounded=0;" parent="1" edge="1">
          <mxGeometry width="50" height="50" relative="1" as="geometry">
            <mxPoint x="130" y="260" as="sourcePoint" />
            <mxPoint x="185" y="260" as="targetPoint" />
            <Array as="points">
              <mxPoint x="160" y="260" />
            </Array>
          </mxGeometry>
        </mxCell>
        <mxCell id="iAj_ErwM6QHPiEVYFfLW-22" style="edgeStyle=orthogonalEdgeStyle;rounded=0;orthogonalLoop=1;jettySize=auto;html=1;exitX=0.5;exitY=0;exitDx=0;exitDy=0;exitPerimeter=0;entryX=0.009;entryY=0.694;entryDx=0;entryDy=0;entryPerimeter=0;endArrow=none;startFill=0;" parent="1" source="iAj_ErwM6QHPiEVYFfLW-10" target="iAj_ErwM6QHPiEVYFfLW-6" edge="1">
          <mxGeometry relative="1" as="geometry" />
        </mxCell>
        <mxCell id="iAj_ErwM6QHPiEVYFfLW-23" value="" style="endArrow=classic;html=1;rounded=0;" parent="1" edge="1">
          <mxGeometry width="50" height="50" relative="1" as="geometry">
            <mxPoint x="209" y="315" as="sourcePoint" />
            <mxPoint x="209" y="285" as="targetPoint" />
          </mxGeometry>
        </mxCell>
        <mxCell id="iAj_ErwM6QHPiEVYFfLW-24" value="V&lt;sub&gt;o&lt;/sub&gt;" style="text;strokeColor=none;align=center;fillColor=none;html=1;verticalAlign=middle;whiteSpace=wrap;rounded=0;" parent="1" vertex="1">
          <mxGeometry x="414" y="330" width="60" height="30" as="geometry" />
        </mxCell>
        <mxCell id="iAj_ErwM6QHPiEVYFfLW-25" value="V&lt;sub&gt;i1&lt;/sub&gt;" style="text;strokeColor=none;align=center;fillColor=none;html=1;verticalAlign=middle;whiteSpace=wrap;rounded=0;" parent="1" vertex="1">
          <mxGeometry x="40" y="320" width="60" height="30" as="geometry" />
        </mxCell>
        <mxCell id="iAj_ErwM6QHPiEVYFfLW-26" value="V&lt;sub&gt;i&lt;/sub&gt;" style="text;strokeColor=none;align=center;fillColor=none;html=1;verticalAlign=middle;whiteSpace=wrap;rounded=0;" parent="1" vertex="1">
          <mxGeometry x="190" y="290" width="60" height="30" as="geometry" />
        </mxCell>
        <mxCell id="iAj_ErwM6QHPiEVYFfLW-27" value="" style="endArrow=classic;html=1;rounded=0;" parent="1" edge="1">
          <mxGeometry width="50" height="50" relative="1" as="geometry">
            <mxPoint x="230" y="260" as="sourcePoint" />
            <mxPoint x="260" y="260" as="targetPoint" />
          </mxGeometry>
        </mxCell>
        <mxCell id="iAj_ErwM6QHPiEVYFfLW-28" value="I&lt;sub&gt;i&lt;/sub&gt;" style="text;strokeColor=none;align=center;fillColor=none;html=1;verticalAlign=middle;whiteSpace=wrap;rounded=0;" parent="1" vertex="1">
          <mxGeometry x="210" y="230" width="60" height="30" as="geometry" />
        </mxCell>
        <mxCell id="iAj_ErwM6QHPiEVYFfLW-29" value="I&lt;sub&gt;2&lt;/sub&gt;" style="text;strokeColor=none;align=center;fillColor=none;html=1;verticalAlign=middle;whiteSpace=wrap;rounded=0;" parent="1" vertex="1">
          <mxGeometry x="167.5" y="210" width="60" height="30" as="geometry" />
        </mxCell>
        <mxCell id="iAj_ErwM6QHPiEVYFfLW-30" value="I&lt;sub&gt;1&lt;/sub&gt;" style="text;strokeColor=none;align=center;fillColor=none;html=1;verticalAlign=middle;whiteSpace=wrap;rounded=0;" parent="1" vertex="1">
          <mxGeometry x="125" y="230" width="60" height="30" as="geometry" />
        </mxCell>
        <mxCell id="iAj_ErwM6QHPiEVYFfLW-31" value="&lt;font style=&quot;font-size: 13px;&quot;&gt;&lt;b&gt;R&lt;sub style=&quot;&quot;&gt;1&lt;/sub&gt;&lt;/b&gt;&lt;/font&gt;" style="text;strokeColor=none;align=center;fillColor=none;html=1;verticalAlign=middle;whiteSpace=wrap;rounded=0;" parent="1" vertex="1">
          <mxGeometry x="130" y="290" width="60" height="30" as="geometry" />
        </mxCell>
        <mxCell id="iAj_ErwM6QHPiEVYFfLW-32" value="&lt;font&gt;&lt;b&gt;C&lt;sub style=&quot;&quot;&gt;2&lt;/sub&gt;&lt;/b&gt;&lt;/font&gt;" style="text;strokeColor=none;align=center;fillColor=none;html=1;verticalAlign=middle;whiteSpace=wrap;rounded=0;" parent="1" vertex="1">
          <mxGeometry x="290" y="150" width="60" height="30" as="geometry" />
        </mxCell>
        <mxCell id="iAj_ErwM6QHPiEVYFfLW-43" value="&lt;font style=&quot;font-size: 18px;&quot;&gt;&lt;b style=&quot;&quot;&gt;-&lt;/b&gt;&lt;/font&gt;" style="text;strokeColor=none;align=center;fillColor=none;html=1;verticalAlign=middle;whiteSpace=wrap;rounded=0;" parent="1" vertex="1">
          <mxGeometry x="253" y="265" width="60" height="30" as="geometry" />
        </mxCell>
        <mxCell id="iAj_ErwM6QHPiEVYFfLW-44" value="&lt;font style=&quot;font-size: 18px;&quot;&gt;&lt;b&gt;+&lt;/b&gt;&lt;/font&gt;" style="text;strokeColor=none;align=center;fillColor=none;html=1;verticalAlign=middle;whiteSpace=wrap;rounded=0;" parent="1" vertex="1">
          <mxGeometry x="253" y="305" width="60" height="30" as="geometry" />
        </mxCell>
        <mxCell id="IqV138hMXSPblxsIJ_Ex-2" style="edgeStyle=orthogonalEdgeStyle;rounded=0;orthogonalLoop=1;jettySize=auto;html=1;endArrow=none;startFill=0;" edge="1" parent="1" source="IqV138hMXSPblxsIJ_Ex-1">
          <mxGeometry relative="1" as="geometry">
            <mxPoint x="400" y="301" as="targetPoint" />
          </mxGeometry>
        </mxCell>
        <mxCell id="IqV138hMXSPblxsIJ_Ex-3" style="edgeStyle=orthogonalEdgeStyle;rounded=0;orthogonalLoop=1;jettySize=auto;html=1;exitX=0;exitY=0.5;exitDx=0;exitDy=0;exitPerimeter=0;endArrow=none;startFill=0;" edge="1" parent="1" source="IqV138hMXSPblxsIJ_Ex-1">
          <mxGeometry relative="1" as="geometry">
            <mxPoint x="220.4000244140625" y="186.60000610351562" as="targetPoint" />
          </mxGeometry>
        </mxCell>
        <mxCell id="IqV138hMXSPblxsIJ_Ex-1" value="" style="pointerEvents=1;verticalLabelPosition=bottom;shadow=0;dashed=0;align=center;html=1;verticalAlign=top;shape=mxgraph.electrical.resistors.resistor_1;" vertex="1" parent="1">
          <mxGeometry x="253" y="110" width="100" height="20" as="geometry" />
        </mxCell>
        <mxCell id="IqV138hMXSPblxsIJ_Ex-4" value="&lt;b&gt;&lt;font style=&quot;font-size: 16px;&quot;&gt;R&lt;sub style=&quot;&quot;&gt;2&lt;/sub&gt;&lt;/font&gt;&lt;/b&gt;" style="text;strokeColor=none;align=center;fillColor=none;html=1;verticalAlign=middle;whiteSpace=wrap;rounded=0;" vertex="1" parent="1">
          <mxGeometry x="272.99998779296874" y="74" width="60" height="30" as="geometry" />
        </mxCell>
        <mxCell id="IqV138hMXSPblxsIJ_Ex-6" value="" style="endArrow=classic;html=1;rounded=0;" edge="1" parent="1">
          <mxGeometry width="50" height="50" relative="1" as="geometry">
            <mxPoint x="209" y="240" as="sourcePoint" />
            <mxPoint x="209" y="200" as="targetPoint" />
          </mxGeometry>
        </mxCell>
        <mxCell id="IqV138hMXSPblxsIJ_Ex-7" value="" style="endArrow=classic;html=1;rounded=0;" edge="1" parent="1">
          <mxGeometry width="50" height="50" relative="1" as="geometry">
            <mxPoint x="227.5" y="164.5" as="sourcePoint" />
            <mxPoint x="287.5" y="164.5" as="targetPoint" />
          </mxGeometry>
        </mxCell>
        <mxCell id="IqV138hMXSPblxsIJ_Ex-8" value="" style="endArrow=classic;html=1;rounded=0;" edge="1" parent="1">
          <mxGeometry width="50" height="50" relative="1" as="geometry">
            <mxPoint x="215" y="104" as="sourcePoint" />
            <mxPoint x="265" y="104" as="targetPoint" />
            <Array as="points">
              <mxPoint x="235" y="104" />
            </Array>
          </mxGeometry>
        </mxCell>
        <mxCell id="IqV138hMXSPblxsIJ_Ex-9" value="I&lt;sub&gt;C2&lt;/sub&gt;" style="text;strokeColor=none;align=center;fillColor=none;html=1;verticalAlign=middle;whiteSpace=wrap;rounded=0;" vertex="1" parent="1">
          <mxGeometry x="220" y="130" width="60" height="30" as="geometry" />
        </mxCell>
        <mxCell id="IqV138hMXSPblxsIJ_Ex-10" value="I&lt;sub&gt;R2&lt;/sub&gt;" style="text;strokeColor=none;align=center;fillColor=none;html=1;verticalAlign=middle;whiteSpace=wrap;rounded=0;" vertex="1" parent="1">
          <mxGeometry x="210" y="70" width="60" height="30" as="geometry" />
        </mxCell>
      </root>
    </mxGraphModel>
  </diagram>
</mxfile>
